<svg width="256" height="256" viewBox="0 0 256 256" fill="none" xmlns="http://www.w3.org/2000/svg">
  <!-- Background Circle -->
  <circle cx="128" cy="128" r="120" fill="url(#gradient)" stroke="#e5e7eb" stroke-width="2"/>
  
  <!-- AS Monogram -->
  <g transform="translate(64, 64)">
    <!-- Letter A -->
    <path d="M32 16 L48 48 L40 48 L36 40 L28 40 L24 48 L16 48 L32 16 Z M32 24 L28 36 L36 36 L32 24 Z" fill="white"/>
    
    <!-- Letter S -->
    <path d="M56 16 C56 12, 52 8, 48 8 C44 8, 40 12, 40 16 C40 20, 44 24, 48 24 C52 24, 56 28, 56 32 C56 36, 52 40, 48 40 C44 40, 40 36, 40 32" fill="white"/>
    
    <!-- Neural Network Lines -->
    <path d="M8 8 L24 24 M8 24 L24 8 M8 40 L24 56 M8 56 L24 40" stroke="white" stroke-width="2" opacity="0.6"/>
    <path d="M40 8 L56 24 M40 24 L56 8 M40 40 L56 56 M40 56 L56 40" stroke="white" stroke-width="2" opacity="0.6"/>
    
    <!-- Stock Chart Line -->
    <path d="M8 32 Q24 16, 40 24 T72 32" stroke="white" stroke-width="3" fill="none" opacity="0.8"/>
  </g>
  
  <!-- Gradient Definition -->
  <defs>
    <linearGradient id="gradient" x1="0%" y1="0%" x2="100%" y2="100%">
      <stop offset="0%" style="stop-color:#1e40af;stop-opacity:1" />
      <stop offset="100%" style="stop-color:#3b82f6;stop-opacity:1" />
    </linearGradient>
  </defs>
</svg>
